[img]http://lh3.ggpht.com/lipgloss14/R0s3TcDGrxI/AAAAAAAAEqU/y1G1sganUnw/1974-g-Benaam.jpg[/img]

[code]General
Format                           : AVI
Format/Info                      : Audio Video Interleave
File size                        : 1.45 GiB
Duration                         : 1h 57mn
Overall bit rate                 : 1 776 Kbps

Video
ID                               : 0
Format                           : MPEG-4 Visual
Format profile                   : Advanced Simple@L5
Format settings, BVOP            : 2
Format settings, QPel            : No
Format settings, GMC             : No warppoints
Format settings, Matrix          : Default (H.263)
Codec ID                         : XVID
Codec ID/Hint                    : XviD
Duration                         : 1h 57mn
Bit rate                         : 1 383 Kbps
Width                            : 704 pixels
Height                           : 480 pixels
Display aspect ratio             : 3:2
Frame rate                       : 29.970 fps
Standard                         : NTSC
Color space                      : YUV
Chroma subsampling               : 4:2:0
Bit depth                        : 8 bits
Scan type                        : Progressive
Compression mode                 : Lossy
Bits/(Pixel*Frame)               : 0.137
Stream size                      : 1.13 GiB (78%)
Writing library                  : XviD 1.2.1 (UTC 2008-12-04)

Audio
ID                               : 1
Format                           : AC-3
Format/Info                      : Audio Coding 3
Mode extension                   : CM (complete main)
Codec ID                         : 2000
Duration                         : 1h 57mn
Bit rate mode                    : Constant
Bit rate                         : 384 Kbps
Channel(s)                       : 6 channels
Channel positions                : Front: L C R, Side: L R, LFE
Sampling rate                    : 48.0 KHz
Bit depth                        : 16 bits
Compression mode                 : Lossy
Stream size                      : 322 MiB (22%)
Alignment                        : Aligned on interleaves
Interleave, duration             : 64 ms (1.92 video frames)
Interleave, preload duration     : 192 ms
Title                            : Striker[WBZ]  [/code]

[img]http://pic.phyrefile.com/s/sh/shahaz/2011/04/12/1_003.jpg[/img]
[img]http://pic.phyrefile.com/s/sh/shahaz/2011/04/12/2_003.jpg[/img]
[img]http://pic.phyrefile.com/s/sh/shahaz/2011/04/12/3_002.jpg[/img]
[img]http://pic.phyrefile.com/s/sh/shahaz/2011/04/12/4_002.jpg[/img]
[img]http://pic.phyrefile.com/s/sh/shahaz/2011/04/12/5_002.jpg[/img]
[img]http://pic.phyrefile.com/s/sh/shahaz/2011/04/12/6_002.jpg[/img]
[img]http://pic.phyrefile.com/s/sh/shahaz/2011/04/12/7_002.jpg[/img]
[img]http://pic.phyrefile.com/s/sh/shahaz/2011/04/12/8_002.jpg[/img]
[img]http://pic.phyrefile.com/s/sh/shahaz/2011/04/12/9_002.jpg[/img]
[img]http://pic.phyrefile.com/s/sh/shahaz/2011/04/12/10_002.jpg[/img]
